<svg width="153" height="116" viewBox="0 0 153 116" fill="none" xmlns="http://www.w3.org/2000/svg">
<rect x="153" y="7" width="109" height="152" rx="54.5" transform="rotate(90 153 7)" fill="#F9F2E8"/>
<g clip-path="url(#clip0_10760_409)">
<path opacity="0.98" d="M20.2747 42.5197C19.9515 41.1195 20.8245 39.7225 22.2247 39.3993L121.503 16.4841C122.903 16.1609 124.3 17.034 124.623 18.4341L138.808 79.8872C139.131 81.2874 138.258 82.6844 136.858 83.0076L37.5795 105.923C36.1793 106.246 34.7823 105.373 34.4591 103.973L20.2747 42.5197Z" fill="#FFFBF7"/>
</g>
<path d="M34.5386 39.4149L36.0491 41.1581L38.0302 39.9564L38.349 42.2349L40.6683 42.2849L39.6941 44.3753L41.6153 45.6611L39.6574 46.8998L40.5705 49.0132L39.4474 50.6716L37.8657 51.2768L36.7881 52.3751L34.3596 51.7333L33.27 51.8751L31.1654 50.2377L31.5069 47.961L29.2972 47.2649L30.8251 45.5301L29.3481 43.7587L31.5773 43.1166L31.302 40.8324L33.5247 41.4868L34.5386 39.4149Z" fill="#890019"/>
<path d="M34.8175 41.5554L36.3331 43.6396L38.9061 43.7829L37.3923 45.8684L38.0511 48.3598L35.5998 47.5645L33.434 48.9609L33.4329 46.3839L31.4355 44.7556L33.886 43.9582L34.8175 41.5554Z" fill="#FCEBEA"/>
<path d="M37.0191 45.2177C37.1443 46.179 36.4865 47.0572 35.5498 47.1791C34.6131 47.3011 33.7524 46.6206 33.6272 45.6593C33.502 44.698 34.1599 43.8199 35.0965 43.6979C36.0332 43.576 36.894 44.2564 37.0191 45.2177Z" fill="#890019"/>
<path d="M43.2767 47.4992C42.7729 49.0074 41.8499 50.3409 40.6157 51.3437C39.3816 52.3465 37.8874 52.977 36.308 53.1616C34.7285 53.3461 33.1292 53.0769 31.6972 52.3856C30.2651 51.6943 29.0596 50.6094 28.2217 49.2579L29.5318 49.415L29.7814 48.2908C30.4357 49.3461 31.3769 50.1931 32.495 50.7329C33.6131 51.2727 34.8618 51.4828 36.095 51.3388C37.3282 51.1947 38.4949 50.7024 39.4584 49.9194C40.422 49.1365 41.1427 48.0953 41.5361 46.9177L42.0963 47.9607L43.2767 47.4992Z" fill="#890019"/>
<path d="M107.419 37.2237C106.959 37.2836 106.529 37.2228 106.127 37.0414C105.73 36.8545 105.399 36.567 105.135 36.1789C104.871 35.7908 104.704 35.3327 104.636 34.8048C104.568 34.2867 104.61 33.8065 104.761 33.3643C104.917 32.9214 105.163 32.5588 105.499 32.2765C105.835 31.9892 106.235 31.8154 106.699 31.7549C107.188 31.6913 107.608 31.7509 107.96 31.9337C108.311 32.1117 108.597 32.3777 108.817 32.7318C108.823 32.741 108.828 32.7553 108.83 32.7749C108.835 32.8091 108.821 32.8357 108.788 32.8549L108.242 33.1796C108.233 33.1857 108.218 33.1901 108.199 33.1926C108.164 33.1971 108.138 33.1832 108.119 33.1508C107.795 32.6909 107.357 32.4969 106.805 32.5688C106.522 32.6057 106.275 32.7173 106.066 32.9036C105.856 33.0851 105.704 33.3286 105.609 33.6342C105.515 33.9398 105.493 34.2856 105.543 34.6718C105.594 35.0628 105.704 35.3964 105.874 35.6725C106.05 35.948 106.262 36.149 106.512 36.2755C106.767 36.4014 107.034 36.4461 107.313 36.4099C107.894 36.3341 108.282 36.0127 108.477 35.4455C108.484 35.4198 108.496 35.4008 108.514 35.3885C108.538 35.3755 108.562 35.3723 108.588 35.3789L109.204 35.5298C109.266 35.5466 109.287 35.5786 109.269 35.6258C109.147 36.0691 108.931 36.4303 108.619 36.7095C108.308 36.9887 107.907 37.1601 107.419 37.2237ZM110.93 36.5876C110.933 36.6121 110.926 36.6353 110.909 36.6574C110.896 36.674 110.878 36.6839 110.853 36.6871L110.193 36.773C110.169 36.7762 110.146 36.7717 110.125 36.7596C110.107 36.7419 110.097 36.7209 110.094 36.6965L109.428 31.5786C109.424 31.5542 109.429 31.5337 109.442 31.5171C109.459 31.495 109.48 31.4823 109.504 31.4792L110.12 31.399C110.164 31.3932 110.201 31.4083 110.23 31.4443L113.355 34.8253L112.874 31.1299C112.871 31.1055 112.875 31.085 112.888 31.0684C112.905 31.0463 112.926 31.0337 112.95 31.0305L113.61 30.9446C113.635 30.9414 113.655 30.9486 113.673 30.9663C113.694 30.9784 113.706 30.9967 113.71 31.0211L114.376 36.139C114.379 36.1634 114.372 36.1867 114.355 36.2088C114.342 36.2253 114.324 36.2352 114.299 36.2384L113.691 36.3176C113.647 36.3234 113.61 36.3083 113.581 36.2723L110.449 32.8922L110.93 36.5876ZM116.348 35.8822C116.351 35.9066 116.345 35.9299 116.328 35.952C116.315 35.9685 116.296 35.9784 116.272 35.9816L115.575 36.0723C115.551 36.0755 115.528 36.071 115.506 36.0589C115.489 36.0412 115.479 36.0202 115.476 35.9958L114.809 30.8779C114.806 30.8535 114.811 30.833 114.824 30.8164C114.841 30.7943 114.862 30.7816 114.886 30.7785L116.602 30.5551C117.003 30.5029 117.362 30.5332 117.68 30.6459C117.998 30.7586 118.252 30.9392 118.444 31.1876C118.64 31.4355 118.761 31.7329 118.806 32.08C118.851 32.4222 118.81 32.7382 118.683 33.028C118.562 33.3172 118.362 33.557 118.084 33.7474C117.805 33.9377 117.466 34.059 117.065 34.1112L116.134 34.2324L116.348 35.8822ZM116.959 33.2973C117.301 33.2528 117.556 33.1325 117.725 32.9366C117.892 32.7358 117.957 32.4888 117.919 32.1955C117.881 31.9022 117.755 31.68 117.541 31.5289C117.328 31.3777 117.05 31.3244 116.708 31.3689L115.776 31.4902L116.028 33.4186L116.959 33.2973ZM118.994 35.7017C118.96 35.7062 118.933 35.6898 118.913 35.6526L118.642 35.0615L118.63 35.0258C118.626 34.9916 118.645 34.9643 118.687 34.9439C119.066 34.7653 119.355 34.5959 119.553 34.436C119.751 34.276 119.879 34.1151 119.937 33.9534C120 33.7862 120.017 33.5926 119.988 33.3726L119.583 30.2564C119.579 30.232 119.584 30.2115 119.597 30.1949C119.614 30.1728 119.635 30.1602 119.659 30.157L120.363 30.0653C120.388 30.0622 120.408 30.0694 120.426 30.087C120.447 30.0992 120.459 30.1174 120.463 30.1419L120.868 33.2581C120.913 33.6051 120.889 33.914 120.795 34.1847C120.701 34.4555 120.518 34.7129 120.247 34.957C119.98 35.1956 119.598 35.4317 119.101 35.6654C119.054 35.6864 119.019 35.6985 118.994 35.7017Z" fill="#EF5753"/>
<rect x="30.1851" y="57.182" width="96.3655" height="8.84338" rx="0.774936" transform="rotate(-7.41808 30.1851 57.182)" stroke="#C41835" stroke-width="0.273507"/>
<path d="M58.9617 53.298L60.1388 62.3386" stroke="#C41835" stroke-width="0.273507"/>
<path d="M99.6443 48.0015L100.821 57.0421" stroke="#C41835" stroke-width="0.273507"/>
<rect x="31.7153" y="68.9349" width="96.3655" height="7.02001" rx="0.774936" transform="rotate(-7.41808 31.7153 68.9349)" stroke="#C41835" stroke-width="0.273507"/>
<rect x="33.01" y="78.8794" width="96.3655" height="7.02001" rx="0.774936" transform="rotate(-7.41808 33.01 78.8794)" stroke="#C41835" stroke-width="0.273507"/>
<g clip-path="url(#clip1_10760_409)">
<path opacity="0.98" d="M24.4374 32.6367C24.3586 31.202 25.4578 29.9749 26.8926 29.896L128.627 24.3051C130.062 24.2262 131.289 25.3254 131.368 26.7602L134.829 89.7341C134.908 91.1688 133.809 92.3959 132.374 92.4747L30.6389 98.0657C29.2041 98.1446 27.9771 97.0453 27.8982 95.6106L24.4374 32.6367Z" fill="white"/>
</g>
<path d="M36.379 36.1052L37.7554 37.9561L39.8205 36.9053L39.9687 39.2012L42.2778 39.4238L41.1506 41.4359L42.9707 42.8612L40.926 43.9506L41.6791 46.1261L40.4355 47.6963L38.8132 48.1819L37.6567 49.197L35.2828 48.376L34.1857 48.4363L32.2089 46.6466L32.719 44.4016L30.5673 43.5429L32.2202 41.9267L30.8793 40.0502L33.1501 39.576L33.0458 37.2776L35.2136 38.0958L36.379 36.1052Z" fill="#890019"/>
<path d="M36.4977 38.26L37.8538 40.4513L40.409 40.7859L38.744 42.7528L39.2153 45.2864L36.8302 44.3107L34.5663 45.5419L34.7572 42.9719L32.8867 41.1993L35.3898 40.5867L36.4977 38.26Z" fill="#FCEBEA"/>
<path d="M38.4204 42.0762C38.4736 43.0441 37.7521 43.8708 36.809 43.9227C35.8658 43.9745 35.0581 43.2318 35.0049 42.2639C34.9518 41.2959 35.6732 40.4692 36.6163 40.4174C37.5595 40.3655 38.3672 41.1082 38.4204 42.0762Z" fill="#890019"/>
<path d="M44.4906 44.8175C43.8758 46.284 42.856 47.5451 41.5506 48.4531C40.2452 49.3612 38.7081 49.8786 37.1194 49.945C35.5306 50.0113 33.9557 49.6237 32.5792 48.8277C31.2026 48.0316 30.0813 46.8599 29.3464 45.4497L30.6412 45.704L30.9739 44.6016C31.5476 45.7026 32.4232 46.6174 33.4979 47.239C34.5727 47.8606 35.8023 48.1632 37.0428 48.1114C38.2833 48.0596 39.4834 47.6556 40.5026 46.9466C41.5219 46.2376 42.3181 45.253 42.7981 44.1079L43.2791 45.1898L44.4906 44.8175Z" fill="#890019"/>
<path d="M109.22 39.3492C108.757 39.3746 108.332 39.2819 107.946 39.0711C107.563 38.8552 107.255 38.5438 107.02 38.1371C106.786 37.7304 106.654 37.2612 106.625 36.7296C106.596 36.2079 106.674 35.7322 106.857 35.3025C107.046 34.8725 107.318 34.5292 107.674 34.2726C108.03 34.0112 108.442 33.8676 108.91 33.8419C109.402 33.8149 109.817 33.9056 110.154 34.1142C110.491 34.3178 110.756 34.6044 110.949 34.9739C110.955 34.9835 110.958 34.9981 110.959 35.0178C110.961 35.0523 110.945 35.0778 110.911 35.0945L110.342 35.3775C110.332 35.383 110.318 35.3863 110.298 35.3874C110.263 35.3893 110.238 35.3734 110.221 35.3397C109.933 34.857 109.511 34.6308 108.955 34.6614C108.669 34.6771 108.415 34.7701 108.193 34.9403C107.97 35.1056 107.8 35.3371 107.683 35.6348C107.566 35.9325 107.518 36.2757 107.539 36.6646C107.561 37.0583 107.646 37.3992 107.795 37.6872C107.95 37.975 108.147 38.1912 108.387 38.336C108.631 38.4805 108.894 38.5451 109.175 38.5297C109.76 38.4975 110.171 38.2058 110.408 37.6547C110.416 37.6296 110.43 37.6115 110.449 37.6006C110.473 37.5894 110.498 37.5881 110.523 37.5966L111.126 37.793C111.187 37.8143 111.206 37.8478 111.184 37.8935C111.03 38.3265 110.787 38.6706 110.455 38.9258C110.124 39.181 109.712 39.3221 109.22 39.3492ZM112.769 38.9764C112.77 39.001 112.761 39.0237 112.743 39.0445C112.729 39.0601 112.709 39.0685 112.685 39.0699L112.02 39.1064C111.996 39.1077 111.973 39.1016 111.953 39.0879C111.937 39.069 111.928 39.0473 111.927 39.0227L111.644 33.8694C111.642 33.8448 111.649 33.8247 111.663 33.8091C111.681 33.7883 111.703 33.7773 111.727 33.7759L112.348 33.7418C112.392 33.7394 112.427 33.7572 112.454 33.7952L115.318 37.3997L115.114 33.6787C115.112 33.6541 115.119 33.634 115.133 33.6184C115.151 33.5976 115.173 33.5866 115.197 33.5852L115.862 33.5487C115.887 33.5474 115.907 33.5561 115.923 33.575C115.943 33.5887 115.954 33.6078 115.955 33.6324L116.239 38.7857C116.24 38.8103 116.231 38.833 116.213 38.8538C116.199 38.8694 116.179 38.8778 116.155 38.8792L115.542 38.9129C115.498 38.9153 115.462 38.8975 115.435 38.8595L112.564 35.2554L112.769 38.9764ZM118.225 38.6766C118.226 38.7012 118.217 38.7239 118.199 38.7446C118.185 38.7602 118.165 38.7687 118.141 38.77L117.439 38.8086C117.415 38.8099 117.392 38.8038 117.372 38.7901C117.356 38.7712 117.347 38.7495 117.346 38.7249L117.063 33.5716C117.061 33.547 117.068 33.5269 117.082 33.5113C117.1 33.4905 117.122 33.4795 117.147 33.4781L118.874 33.3832C119.278 33.361 119.634 33.4179 119.942 33.554C120.251 33.6901 120.492 33.8892 120.664 34.1512C120.841 34.413 120.94 34.7186 120.959 35.0681C120.978 35.4126 120.913 35.7247 120.766 36.0043C120.623 36.2837 120.406 36.5079 120.114 36.677C119.822 36.8461 119.475 36.9417 119.071 36.9639L118.133 37.0154L118.225 38.6766ZM119.026 36.1444C119.37 36.1254 119.634 36.0246 119.816 35.8418C119.999 35.654 120.082 35.4125 120.065 35.1172C120.049 34.8219 119.94 34.5909 119.739 34.4242C119.537 34.2576 119.264 34.1837 118.919 34.2027L117.982 34.2542L118.088 36.1959L119.026 36.1444ZM120.877 38.6937C120.842 38.6956 120.816 38.6773 120.799 38.6387L120.573 38.0291L120.564 37.9926C120.562 37.9582 120.583 37.9323 120.626 37.9151C121.018 37.7652 121.319 37.6179 121.528 37.4731C121.737 37.3283 121.877 37.1775 121.947 37.0206C122.022 36.8585 122.054 36.6667 122.042 36.4452L121.869 33.3074C121.868 33.2828 121.874 33.2627 121.888 33.2472C121.907 33.2264 121.928 33.2153 121.953 33.214L122.662 33.175C122.686 33.1737 122.706 33.1824 122.722 33.2013C122.743 33.215 122.754 33.2341 122.755 33.2587L122.927 36.3965C122.947 36.7459 122.899 37.0522 122.785 37.3151C122.672 37.5781 122.47 37.8212 122.181 38.0444C121.897 38.2625 121.499 38.4695 120.986 38.6655C120.938 38.683 120.901 38.6924 120.877 38.6937Z" fill="#EF5753"/>
<rect x="30.7139" y="53.4981" width="96.3655" height="8.84338" rx="0.774936" transform="rotate(-3.14559 30.7139 53.4981)" stroke="#C41835" stroke-width="0.273507"/>
<path d="M59.7 51.7687L60.2003 60.8719" stroke="#C41835" stroke-width="0.273507"/>
<path d="M100.664 49.5178L101.164 58.6209" stroke="#C41835" stroke-width="0.273507"/>
<rect x="31.3643" y="65.3323" width="96.3655" height="7.02001" rx="0.774936" transform="rotate(-3.14559 31.3643 65.3323)" stroke="#C41835" stroke-width="0.273507"/>
<rect x="31.9146" y="75.3456" width="96.3655" height="7.02001" rx="0.774936" transform="rotate(-3.14559 31.9146 75.3456)" stroke="#C41835" stroke-width="0.273507"/>
<defs>
<clipPath id="clip0_10760_409">
<rect x="19.6894" y="39.984" width="107.092" height="68.2725" rx="6.22678" transform="rotate(-12.9973 19.6894 39.984)" fill="white"/>
</clipPath>
<clipPath id="clip1_10760_409">
<rect x="24.2947" y="30.0383" width="107.092" height="68.2725" rx="6.22678" transform="rotate(-3.14559 24.2947 30.0383)" fill="white"/>
</clipPath>
</defs>
</svg>
